<mxfile host="app.diagrams.net" agent="Mozilla/5.0 (Macintosh; Intel Mac OS X 10_15_7) AppleWebKit/537.36 (KHTML, like Gecko) Chrome/136.0.0.0 Safari/537.36" version="27.0.6">
  <diagram name="Page-1" id="kD0OR9ni4DClqbJ35Cz8">
    <mxGraphModel grid="1" page="1" gridSize="10" guides="1" tooltips="1" connect="1" arrows="1" fold="1" pageScale="1" pageWidth="827" pageHeight="1169" math="0" shadow="0">
      <root>
        <mxCell id="0" />
        <mxCell id="1" parent="0" />
        <mxCell id="yXpFX-Qe3yZJcAZ_xvEc-1" value="Primary Care" style="rounded=0;whiteSpace=wrap;html=1;verticalAlign=top;fillColor=#dae8fc;strokeColor=#6c8ebf;" vertex="1" parent="1">
          <mxGeometry x="120" y="40" width="120" height="480" as="geometry" />
        </mxCell>
        <mxCell id="yXpFX-Qe3yZJcAZ_xvEc-2" value="Secondary Care" style="rounded=0;whiteSpace=wrap;html=1;verticalAlign=top;fillColor=#dae8fc;strokeColor=#6c8ebf;" vertex="1" parent="1">
          <mxGeometry x="280" y="40" width="120" height="480" as="geometry" />
        </mxCell>
        <mxCell id="yXpFX-Qe3yZJcAZ_xvEc-3" value="Diagnostics&lt;br&gt;Pathology" style="rounded=0;whiteSpace=wrap;html=1;verticalAlign=top;fillColor=#dae8fc;strokeColor=#6c8ebf;" vertex="1" parent="1">
          <mxGeometry x="440" y="40" width="110" height="480" as="geometry" />
        </mxCell>
        <mxCell id="yXpFX-Qe3yZJcAZ_xvEc-4" value="Diagnostics&lt;br&gt;Genomics" style="rounded=0;whiteSpace=wrap;html=1;verticalAlign=top;fillColor=#dae8fc;strokeColor=#6c8ebf;" vertex="1" parent="1">
          <mxGeometry x="560" y="40" width="120" height="480" as="geometry" />
        </mxCell>
        <mxCell id="yXpFX-Qe3yZJcAZ_xvEc-5" value="Diagnostics&lt;br&gt;Imaging" style="rounded=0;whiteSpace=wrap;html=1;verticalAlign=top;fillColor=#dae8fc;strokeColor=#6c8ebf;" vertex="1" parent="1">
          <mxGeometry x="690" y="40" width="110" height="480" as="geometry" />
        </mxCell>
        <mxCell id="yXpFX-Qe3yZJcAZ_xvEc-6" value="Care Home /&amp;nbsp;&lt;div&gt;Hospice&lt;/div&gt;" style="rounded=0;whiteSpace=wrap;html=1;verticalAlign=top;fillColor=#dae8fc;strokeColor=#6c8ebf;" vertex="1" parent="1">
          <mxGeometry x="840" y="40" width="120" height="480" as="geometry" />
        </mxCell>
        <mxCell id="yXpFX-Qe3yZJcAZ_xvEc-7" value="&lt;font style=&quot;font-size: 16px;&quot;&gt;&lt;b&gt;Cancer Pathway&lt;/b&gt;&lt;/font&gt;" style="rounded=0;whiteSpace=wrap;html=1;fillColor=#d5e8d4;strokeColor=#82b366;" vertex="1" parent="1">
          <mxGeometry x="80" y="120" width="920" height="60" as="geometry" />
        </mxCell>
        <mxCell id="yXpFX-Qe3yZJcAZ_xvEc-8" value="&lt;font style=&quot;font-size: 16px;&quot;&gt;&lt;b&gt;Genetic Conditions&lt;/b&gt;&lt;/font&gt;" style="rounded=0;whiteSpace=wrap;html=1;fillColor=#d5e8d4;strokeColor=#82b366;" vertex="1" parent="1">
          <mxGeometry x="80" y="370" width="920" height="60" as="geometry" />
        </mxCell>
        <mxCell id="yXpFX-Qe3yZJcAZ_xvEc-9" value="I&#39;m working here" style="rounded=0;whiteSpace=wrap;html=1;fillColor=#e1d5e7;strokeColor=#9673a6;" vertex="1" parent="1">
          <mxGeometry x="430" y="170" width="260" height="37.5" as="geometry" />
        </mxCell>
        <mxCell id="yXpFX-Qe3yZJcAZ_xvEc-12" style="edgeStyle=orthogonalEdgeStyle;rounded=0;orthogonalLoop=1;jettySize=auto;html=1;fillColor=#e1d5e7;strokeColor=#9673a6;endArrow=none;startFill=0;strokeWidth=3;" edge="1" parent="1" source="yXpFX-Qe3yZJcAZ_xvEc-10" target="yXpFX-Qe3yZJcAZ_xvEc-11">
          <mxGeometry relative="1" as="geometry" />
        </mxCell>
        <mxCell id="yXpFX-Qe3yZJcAZ_xvEc-10" value="and here" style="rounded=0;whiteSpace=wrap;html=1;fillColor=#e1d5e7;strokeColor=#9673a6;" vertex="1" parent="1">
          <mxGeometry x="269.5" y="420" width="141" height="37.5" as="geometry" />
        </mxCell>
        <mxCell id="yXpFX-Qe3yZJcAZ_xvEc-11" value="and here" style="rounded=0;whiteSpace=wrap;html=1;fillColor=#e1d5e7;strokeColor=#9673a6;" vertex="1" parent="1">
          <mxGeometry x="549.5" y="420" width="141" height="37.5" as="geometry" />
        </mxCell>
        <mxCell id="yXpFX-Qe3yZJcAZ_xvEc-15" style="edgeStyle=orthogonalEdgeStyle;rounded=0;orthogonalLoop=1;jettySize=auto;html=1;fillColor=#e1d5e7;strokeColor=#9673a6;strokeWidth=3;endArrow=none;startFill=0;" edge="1" parent="1" source="yXpFX-Qe3yZJcAZ_xvEc-13" target="yXpFX-Qe3yZJcAZ_xvEc-14">
          <mxGeometry relative="1" as="geometry" />
        </mxCell>
        <mxCell id="yXpFX-Qe3yZJcAZ_xvEc-13" value="possibly here" style="rounded=0;whiteSpace=wrap;html=1;fillColor=#e1d5e7;strokeColor=#9673a6;fillStyle=dots;" vertex="1" parent="1">
          <mxGeometry x="106" y="470" width="141" height="37.5" as="geometry" />
        </mxCell>
        <mxCell id="yXpFX-Qe3yZJcAZ_xvEc-14" value="and possibly here" style="rounded=0;whiteSpace=wrap;html=1;fillColor=#e1d5e7;strokeColor=#9673a6;fillStyle=dots;" vertex="1" parent="1">
          <mxGeometry x="269.5" y="470" width="141" height="37.5" as="geometry" />
        </mxCell>
        <mxCell id="yXpFX-Qe3yZJcAZ_xvEc-18" style="edgeStyle=orthogonalEdgeStyle;rounded=0;orthogonalLoop=1;jettySize=auto;html=1;endArrow=none;startFill=0;fillColor=#e1d5e7;strokeColor=#9673a6;strokeWidth=3;" edge="1" parent="1" source="yXpFX-Qe3yZJcAZ_xvEc-16" target="yXpFX-Qe3yZJcAZ_xvEc-17">
          <mxGeometry relative="1" as="geometry" />
        </mxCell>
        <mxCell id="yXpFX-Qe3yZJcAZ_xvEc-16" value="possibly here" style="rounded=0;whiteSpace=wrap;html=1;fillColor=#e1d5e7;strokeColor=#9673a6;fillStyle=dots;" vertex="1" parent="1">
          <mxGeometry x="106" y="220" width="141" height="37.5" as="geometry" />
        </mxCell>
        <mxCell id="yXpFX-Qe3yZJcAZ_xvEc-17" value="and possibly here" style="rounded=0;whiteSpace=wrap;html=1;fillColor=#e1d5e7;strokeColor=#9673a6;fillStyle=dots;" vertex="1" parent="1">
          <mxGeometry x="269.5" y="220" width="141" height="37.5" as="geometry" />
        </mxCell>
        <mxCell id="yXpFX-Qe3yZJcAZ_xvEc-20" value="" style="shape=flexArrow;endArrow=classic;html=1;rounded=0;startArrow=block;fillColor=#dae8fc;strokeColor=#6c8ebf;" edge="1" parent="1">
          <mxGeometry width="50" height="50" relative="1" as="geometry">
            <mxPoint x="120" y="570" as="sourcePoint" />
            <mxPoint x="970" y="570" as="targetPoint" />
          </mxGeometry>
        </mxCell>
        <mxCell id="yXpFX-Qe3yZJcAZ_xvEc-21" value="&lt;b&gt;&lt;font style=&quot;font-size: 20px;&quot;&gt;Interoperability Layer&amp;nbsp;&lt;/font&gt;&lt;/b&gt;" style="edgeLabel;html=1;align=center;verticalAlign=middle;resizable=0;points=[];" connectable="0" vertex="1" parent="yXpFX-Qe3yZJcAZ_xvEc-20">
          <mxGeometry x="-0.1671" relative="1" as="geometry">
            <mxPoint x="67" y="40" as="offset" />
          </mxGeometry>
        </mxCell>
        <mxCell id="yXpFX-Qe3yZJcAZ_xvEc-22" value="" style="shape=flexArrow;endArrow=classic;html=1;rounded=0;startArrow=block;" edge="1" parent="1">
          <mxGeometry width="50" height="50" relative="1" as="geometry">
            <mxPoint x="1050" y="520" as="sourcePoint" />
            <mxPoint x="1050" y="40" as="targetPoint" />
          </mxGeometry>
        </mxCell>
        <mxCell id="yXpFX-Qe3yZJcAZ_xvEc-23" value="&lt;span style=&quot;font-size: 20px;&quot;&gt;Data Management&lt;/span&gt;&lt;div&gt;&lt;span style=&quot;font-size: 20px;&quot;&gt;Layer&lt;/span&gt;&lt;/div&gt;" style="edgeLabel;html=1;align=center;verticalAlign=middle;resizable=0;points=[];fontStyle=1" connectable="0" vertex="1" parent="yXpFX-Qe3yZJcAZ_xvEc-22">
          <mxGeometry x="0.1051" y="-1" relative="1" as="geometry">
            <mxPoint x="99" y="-16" as="offset" />
          </mxGeometry>
        </mxCell>
        <mxCell id="yXpFX-Qe3yZJcAZ_xvEc-26" style="edgeStyle=orthogonalEdgeStyle;rounded=0;orthogonalLoop=1;jettySize=auto;html=1;entryX=0;entryY=0.5;entryDx=0;entryDy=0;strokeWidth=3;fillColor=#ffe6cc;strokeColor=#d79b00;endArrow=none;startFill=0;" edge="1" parent="1" source="yXpFX-Qe3yZJcAZ_xvEc-24" target="yXpFX-Qe3yZJcAZ_xvEc-25">
          <mxGeometry relative="1" as="geometry" />
        </mxCell>
        <mxCell id="yXpFX-Qe3yZJcAZ_xvEc-24" value="out of scope" style="rounded=0;whiteSpace=wrap;html=1;fillColor=#ffe6cc;strokeColor=#d79b00;fillStyle=auto;" vertex="1" parent="1">
          <mxGeometry x="269.5" y="270" width="140.5" height="37.5" as="geometry" />
        </mxCell>
        <mxCell id="yXpFX-Qe3yZJcAZ_xvEc-34" style="edgeStyle=orthogonalEdgeStyle;rounded=0;orthogonalLoop=1;jettySize=auto;html=1;entryX=0;entryY=0.5;entryDx=0;entryDy=0;strokeWidth=3;fillColor=#ffe6cc;strokeColor=#d79b00;endArrow=none;startFill=0;" edge="1" parent="1" source="yXpFX-Qe3yZJcAZ_xvEc-25" target="yXpFX-Qe3yZJcAZ_xvEc-33">
          <mxGeometry relative="1" as="geometry" />
        </mxCell>
        <mxCell id="yXpFX-Qe3yZJcAZ_xvEc-25" value="out of scope" style="rounded=0;whiteSpace=wrap;html=1;fillColor=#ffe6cc;strokeColor=#d79b00;fillStyle=auto;" vertex="1" parent="1">
          <mxGeometry x="430" y="270" width="130" height="37.5" as="geometry" />
        </mxCell>
        <mxCell id="yXpFX-Qe3yZJcAZ_xvEc-27" value="Future work&lt;br&gt;pipelines to&lt;br&gt;Unified Genomic Record&lt;br&gt;via REST API" style="rounded=0;whiteSpace=wrap;html=1;fillColor=#e1d5e7;strokeColor=#9673a6;fillStyle=zigzag-line;" vertex="1" parent="1">
          <mxGeometry x="1070" y="320" width="160" height="70" as="geometry" />
        </mxCell>
        <mxCell id="yXpFX-Qe3yZJcAZ_xvEc-28" value="" style="shape=flexArrow;endArrow=classic;html=1;rounded=0;startArrow=block;fillColor=#e1d5e7;strokeColor=#9673a6;" edge="1" parent="1">
          <mxGeometry width="50" height="50" relative="1" as="geometry">
            <mxPoint x="280" y="10" as="sourcePoint" />
            <mxPoint x="800" y="10" as="targetPoint" />
          </mxGeometry>
        </mxCell>
        <mxCell id="yXpFX-Qe3yZJcAZ_xvEc-29" value="&lt;b&gt;&lt;font style=&quot;font-size: 16px;&quot;&gt;Tech Architecture: Asynchronous I/O using HL7 v2&amp;nbsp;&lt;/font&gt;&lt;/b&gt;&lt;div&gt;&lt;b&gt;&lt;font style=&quot;font-size: 16px;&quot;&gt;is the most common standard via Trust Integration Engines (TIE)&lt;/font&gt;&lt;/b&gt;&lt;/div&gt;" style="edgeLabel;html=1;align=center;verticalAlign=middle;resizable=0;points=[];" connectable="0" vertex="1" parent="yXpFX-Qe3yZJcAZ_xvEc-28">
          <mxGeometry x="0.1654" y="1" relative="1" as="geometry">
            <mxPoint x="-43" y="-39" as="offset" />
          </mxGeometry>
        </mxCell>
        <mxCell id="yXpFX-Qe3yZJcAZ_xvEc-32" style="edgeStyle=orthogonalEdgeStyle;rounded=0;orthogonalLoop=1;jettySize=auto;html=1;entryX=0;entryY=0.5;entryDx=0;entryDy=0;strokeWidth=3;endArrow=none;startFill=0;fillColor=#ffe6cc;strokeColor=#d79b00;" edge="1" parent="1" source="yXpFX-Qe3yZJcAZ_xvEc-30" target="yXpFX-Qe3yZJcAZ_xvEc-31">
          <mxGeometry relative="1" as="geometry" />
        </mxCell>
        <mxCell id="yXpFX-Qe3yZJcAZ_xvEc-30" value="out of scope" style="rounded=0;whiteSpace=wrap;html=1;fillColor=#ffe6cc;strokeColor=#d79b00;fillStyle=auto;" vertex="1" parent="1">
          <mxGeometry x="109.75" y="320" width="140.5" height="37.5" as="geometry" />
        </mxCell>
        <mxCell id="yXpFX-Qe3yZJcAZ_xvEc-37" style="edgeStyle=orthogonalEdgeStyle;rounded=0;orthogonalLoop=1;jettySize=auto;html=1;entryX=0.5;entryY=1;entryDx=0;entryDy=0;fillColor=#ffe6cc;strokeColor=#d79b00;strokeWidth=3;endArrow=none;startFill=0;" edge="1" parent="1" source="yXpFX-Qe3yZJcAZ_xvEc-31" target="yXpFX-Qe3yZJcAZ_xvEc-35">
          <mxGeometry relative="1" as="geometry" />
        </mxCell>
        <mxCell id="yXpFX-Qe3yZJcAZ_xvEc-31" value="out of scope" style="rounded=0;whiteSpace=wrap;html=1;fillColor=#ffe6cc;strokeColor=#d79b00;fillStyle=auto;" vertex="1" parent="1">
          <mxGeometry x="269.5" y="320" width="141" height="37.5" as="geometry" />
        </mxCell>
        <mxCell id="yXpFX-Qe3yZJcAZ_xvEc-36" style="edgeStyle=orthogonalEdgeStyle;rounded=0;orthogonalLoop=1;jettySize=auto;html=1;entryX=0;entryY=0.5;entryDx=0;entryDy=0;endArrow=none;startFill=0;strokeWidth=3;fillColor=#ffe6cc;strokeColor=#d79b00;" edge="1" parent="1" source="yXpFX-Qe3yZJcAZ_xvEc-33" target="yXpFX-Qe3yZJcAZ_xvEc-35">
          <mxGeometry relative="1" as="geometry" />
        </mxCell>
        <mxCell id="yXpFX-Qe3yZJcAZ_xvEc-33" value="out of scope" style="rounded=0;whiteSpace=wrap;html=1;fillColor=#ffe6cc;strokeColor=#d79b00;fillStyle=auto;" vertex="1" parent="1">
          <mxGeometry x="680" y="270" width="130" height="37.5" as="geometry" />
        </mxCell>
        <mxCell id="yXpFX-Qe3yZJcAZ_xvEc-35" value="out of scope" style="rounded=0;whiteSpace=wrap;html=1;fillColor=#ffe6cc;strokeColor=#d79b00;fillStyle=auto;" vertex="1" parent="1">
          <mxGeometry x="835" y="270" width="130" height="37.5" as="geometry" />
        </mxCell>
      </root>
    </mxGraphModel>
  </diagram>
</mxfile>
